# xmcd
#
# Track frame offsets:
#	150
#	14994
#	25942
#	37192
#	51917
#	66807
#	81777
#	94692
#	107442
#	118186
#	131461
#	146509
#	160683
#	172206
#	183288
#	198024
#	208264
#	221773
#	236210
#	248688
#	258367
#	272294
#	285166
#	297393
#	310358
#
# Disc length: 4320 seconds
#
# Revision: 2
# Processed by: cddbd v1.5.1PL2 Copyright (c) Steve Scherf et al.
# Submitted via: audiograbber 1.83.01
#
DISCID=7510de19
DTITLE=Various Artist - 50 Sublimes Chanteurs de Jazz 1940-1953 CD2
DYEAR=2003
DGENRE=Jazz
TTITLE0=Dan Grissom - Recess In Heaven
TTITLE1=Sammy Davis jr. - I Ain't Got Nobody
TTITLE2=Sugar Chile Robinson - Numbers Boogie
TTITLE3=Johnny Hartman and Erroll Garner - September In The Rain
TTITLE4=Louis Armstrong - Maybe It's Because
TTITLE5=Buddy Greco and Benny Goodman Orchestra - Brother Bill
TTITLE6=Sonny Parker and Lionel Hampton Orchestra - Sad Feeling
TTITLE7=Sid McKinney and Illinois Jacquet Orchestra - My Old Gal
TTITLE8=Ray Charles - Th'ego Song
TTITLE9=Roy 'King David' Eldridge - Une petite laitue
TTITLE10=Arthur Prysock and Buddy Johnson Orchestra - Ever Since The One I Love's
TTITLE10=Been Gone
TTITLE11=Arthur Prysock and Buddy Johnson Orchestra - Be Careful (If You Can't Be
TTITLE11=Good)
TTITLE12=Slim Gailard and Internationally Famous Orchestra - Sabroso
TTITLE13=Wynonie Harris and Todd Rhodes Orchestra - Lovin' Machine
TTITLE14=Al Hibbler - Summertime
TTITLE15=Joe Carroll and Dizzy Gillespie - I'm In A Mess
TTITLE16=Melvin Moore and Dizzy Gillespie - I Couldn't Beat The Rap
TTITLE17=Freddie Jackson and Budd Johnsons's All Stars - Sometime I Feel Like Lea
TTITLE17=ving Home
TTITLE18=Lloyd Oldham and Duke Ellington Orchestra - Blues At Sundown
TTITLE19=Jimmy Scott - Come What May
TTITLE20=King Pleasure and Blossom Dearie - I'm In The Mood For Love
TTITLE21=Eddie Jefferson - I Got The Blues
TTITLE22=Jackie Paris and Tamara Hayes - I Miss You So
TTITLE23=Dave Bartholomew - Who Drank My Beer While I Was In The Rear
TTITLE24=Cliff Jetkins - Blues For You
EXTD=
EXTT0=
EXTT1=
EXTT2=
EXTT3=
EXTT4=
EXTT5=
EXTT6=
EXTT7=
EXTT8=
EXTT9=
EXTT10=
EXTT11=
EXTT12=
EXTT13=
EXTT14=
EXTT15=
EXTT16=
EXTT17=
EXTT18=
EXTT19=
EXTT20=
EXTT21=
EXTT22=
EXTT23=
EXTT24=
PLAYORDER=
